%FSLAX46Y46*%
G04 Gerber Fmt 4.6, Leading zero omitted, Abs format (unit mm)*
G04 Created by KiCad (PCBNEW (2014-09-22 BZR 5144)-product) date Sun 26 Oct 2014 02:54:13 PM CET*
%MOMM*%
G01*
G04 APERTURE LIST*
%ADD10C,0.100000*%
%ADD11R,4.500880X3.299460*%
%ADD12R,4.498340X3.299460*%
%ADD13R,2.032000X2.032000*%
%ADD14O,2.032000X2.032000*%
%ADD15C,1.998980*%
%ADD16C,1.676400*%
%ADD17C,1.524000*%
%ADD18C,2.000000*%
%ADD19C,0.889000*%
%ADD20C,0.254000*%
G04 APERTURE END LIST*
D10*
D11*
X184104280Y-92075000D03*
D12*
X175305720Y-92075000D03*
D13*
X158115000Y-59055000D03*
D14*
X158115000Y-56515000D03*
D15*
X158115000Y-76835000D03*
X158115000Y-86995000D03*
D11*
X168229280Y-92075000D03*
D12*
X159430720Y-92075000D03*
D11*
X199979280Y-92075000D03*
D12*
X191180720Y-92075000D03*
D16*
X178435000Y-59055000D03*
X180975000Y-59055000D03*
X186055000Y-59055000D03*
X188595000Y-59055000D03*
D17*
X191770000Y-87630000D03*
X189230000Y-87630000D03*
X194310000Y-87630000D03*
D18*
X201919840Y-60960000D03*
X194320160Y-60960000D03*
D19*
X171450000Y-85725000D03*
X190392527Y-83077527D03*
X167640000Y-85725000D03*
X184150000Y-67945000D03*
X160020000Y-71120000D03*
X168529000Y-82677000D03*
X169545000Y-71247000D03*
X192405000Y-78740000D03*
X165100000Y-71120000D03*
X196977000Y-76835000D03*
X190373000Y-81153000D03*
X165024276Y-82474276D03*
D20*
X171450000Y-85725000D02*
X167640000Y-85725000D01*
X190392527Y-83077527D02*
X192932527Y-83077527D01*
X192932527Y-83077527D02*
X199979280Y-90124280D01*
X199979280Y-90124280D02*
X199979280Y-90171270D01*
X199979280Y-90171270D02*
X199979280Y-92075000D01*
X168529000Y-82677000D02*
X167640000Y-83566000D01*
X167640000Y-85096383D02*
X167640000Y-85725000D01*
X167640000Y-83566000D02*
X167640000Y-85096383D01*
X184150000Y-67945000D02*
X184150000Y-62230000D01*
X184150000Y-62230000D02*
X180975000Y-59055000D01*
X159551840Y-56515000D02*
X158115000Y-56515000D01*
X160020000Y-58242198D02*
X160021768Y-58240430D01*
X160021768Y-58240430D02*
X160021768Y-56984928D01*
X160020000Y-71120000D02*
X160020000Y-58242198D01*
X160021768Y-56984928D02*
X159551840Y-56515000D01*
X159130999Y-57530999D02*
X158115000Y-56515000D01*
X159308801Y-57530999D02*
X159130999Y-57530999D01*
X159512001Y-57734199D02*
X159308801Y-57530999D01*
X159512001Y-61214001D02*
X159512001Y-57734199D01*
X169545000Y-71247000D02*
X159512001Y-61214001D01*
X165100000Y-71120000D02*
X172085000Y-78105000D01*
X172085000Y-78105000D02*
X191770000Y-78105000D01*
X191770000Y-78105000D02*
X192405000Y-78740000D01*
X192030383Y-81153000D02*
X190373000Y-81153000D01*
X196348383Y-76835000D02*
X192030383Y-81153000D01*
X196977000Y-76835000D02*
X196348383Y-76835000D01*
X165024276Y-86284276D02*
X165024276Y-86435724D01*
X165024276Y-86435724D02*
X159430720Y-92029280D01*
X171632879Y-88900000D02*
X167640000Y-88900000D01*
X167640000Y-88900000D02*
X165024276Y-86284276D01*
X165024276Y-86284276D02*
X165024276Y-82474276D01*
X159430720Y-92075000D02*
X159430720Y-92029280D01*
X175260000Y-92075000D02*
X172085000Y-88900000D01*
X172085000Y-88900000D02*
X171632879Y-88900000D01*
X174034450Y-88900000D02*
X171632879Y-88900000D01*
X191135000Y-92075000D02*
X187960000Y-88900000D01*
X187960000Y-88900000D02*
X174034450Y-88900000D01*
X189865000Y-92075000D02*
X191180720Y-92075000D01*
X175305720Y-92075000D02*
X176530000Y-92075000D01*
X173990000Y-92075000D02*
X175305720Y-92075000D01*
X159430720Y-92075000D02*
X160655000Y-92075000D01*
X175305720Y-92075000D02*
X175260000Y-92075000D01*
X191180720Y-92075000D02*
X191135000Y-92075000D01*
G36*
X203785000Y-93912532D02*
X203631397Y-94684742D01*
X203555124Y-94798892D01*
X203555124Y-60636205D01*
X203306734Y-60035057D01*
X202847203Y-59574722D01*
X202246488Y-59325284D01*
X201596045Y-59324716D01*
X200994897Y-59573106D01*
X200534562Y-60032637D01*
X200285124Y-60633352D01*
X200284556Y-61283795D01*
X200532946Y-61884943D01*
X200992477Y-62345278D01*
X201593192Y-62594716D01*
X202243635Y-62595284D01*
X202844783Y-62346894D01*
X203305118Y-61887363D01*
X203554556Y-61286648D01*
X203555124Y-60636205D01*
X203555124Y-94798892D01*
X203232193Y-95282193D01*
X202864720Y-95527730D01*
X202864720Y-93851039D01*
X202864720Y-92360750D01*
X202864720Y-91789250D01*
X202864720Y-90298961D01*
X202768047Y-90065572D01*
X202589419Y-89886943D01*
X202356030Y-89790270D01*
X202103411Y-89790270D01*
X200265030Y-89790270D01*
X200106280Y-89949020D01*
X200106280Y-91948000D01*
X202705970Y-91948000D01*
X202864720Y-91789250D01*
X202864720Y-92360750D01*
X202705970Y-92202000D01*
X200106280Y-92202000D01*
X200106280Y-94200980D01*
X200265030Y-94359730D01*
X202103411Y-94359730D01*
X202356030Y-94359730D01*
X202589419Y-94263057D01*
X202768047Y-94084428D01*
X202864720Y-93851039D01*
X202864720Y-95527730D01*
X202634741Y-95681398D01*
X201862532Y-95835000D01*
X199852280Y-95835000D01*
X199852280Y-94200980D01*
X199852280Y-92202000D01*
X199852280Y-91948000D01*
X199852280Y-89949020D01*
X199693530Y-89790270D01*
X198056687Y-89790270D01*
X198056687Y-76621216D01*
X197892689Y-76224311D01*
X197589286Y-75920378D01*
X197192668Y-75755687D01*
X196763216Y-75755313D01*
X196366311Y-75919311D01*
X196178503Y-76106791D01*
X196178502Y-76106791D01*
X196056778Y-76131004D01*
X195966068Y-76191614D01*
X195966068Y-61224539D01*
X195942016Y-60574540D01*
X195739547Y-60085736D01*
X195472692Y-59987073D01*
X195293087Y-60166678D01*
X195293087Y-59807468D01*
X195194424Y-59540613D01*
X194584699Y-59314092D01*
X193934700Y-59338144D01*
X193445896Y-59540613D01*
X193347233Y-59807468D01*
X194320160Y-60780395D01*
X195293087Y-59807468D01*
X195293087Y-60166678D01*
X194499765Y-60960000D01*
X195472692Y-61932927D01*
X195739547Y-61834264D01*
X195966068Y-61224539D01*
X195966068Y-76191614D01*
X195809568Y-76296185D01*
X195293087Y-76812665D01*
X195293087Y-62112532D01*
X194320160Y-61139605D01*
X194140555Y-61319210D01*
X194140555Y-60960000D01*
X193167628Y-59987073D01*
X192900773Y-60085736D01*
X192674252Y-60695461D01*
X192698304Y-61345460D01*
X192900773Y-61834264D01*
X193167628Y-61932927D01*
X194140555Y-60960000D01*
X194140555Y-61319210D01*
X193347233Y-62112532D01*
X193445896Y-62379387D01*
X194055621Y-62605908D01*
X194705620Y-62581856D01*
X195194424Y-62379387D01*
X195293087Y-62112532D01*
X195293087Y-76812665D01*
X193484604Y-78621148D01*
X193484687Y-78526216D01*
X193320689Y-78129311D01*
X193017286Y-77825378D01*
X192620668Y-77660687D01*
X192403127Y-77660497D01*
X192308815Y-77566185D01*
X192061605Y-77401004D01*
X191770000Y-77343000D01*
X190079977Y-77343000D01*
X190079977Y-59280903D01*
X190053389Y-58695431D01*
X189880490Y-58278017D01*
X189630413Y-58199192D01*
X189450808Y-58378797D01*
X189450808Y-58019587D01*
X189371983Y-57769510D01*
X188820903Y-57570023D01*
X188235431Y-57596611D01*
X187818017Y-57769510D01*
X187739192Y-58019587D01*
X188595000Y-58875395D01*
X189450808Y-58019587D01*
X189450808Y-58378797D01*
X188774605Y-59055000D01*
X189630413Y-59910808D01*
X189880490Y-59831983D01*
X190079977Y-59280903D01*
X190079977Y-77343000D01*
X189450808Y-77343000D01*
X189450808Y-60090413D01*
X188595000Y-59234605D01*
X188415395Y-59414210D01*
X188415395Y-59055000D01*
X187559587Y-58199192D01*
X187325836Y-58272870D01*
X187304647Y-58221589D01*
X186890591Y-57806810D01*
X186349323Y-57582056D01*
X185763248Y-57581545D01*
X185221589Y-57805353D01*
X184806810Y-58219409D01*
X184582056Y-58760677D01*
X184581545Y-59346752D01*
X184805353Y-59888411D01*
X185219409Y-60303190D01*
X185760677Y-60527944D01*
X186346752Y-60528455D01*
X186888411Y-60304647D01*
X187303190Y-59890591D01*
X187325441Y-59837004D01*
X187559587Y-59910808D01*
X188415395Y-59055000D01*
X188415395Y-59414210D01*
X187739192Y-60090413D01*
X187818017Y-60340490D01*
X188369097Y-60539977D01*
X188954569Y-60513389D01*
X189371983Y-60340490D01*
X189450808Y-60090413D01*
X189450808Y-77343000D01*
X182459977Y-77343000D01*
X182459977Y-59280903D01*
X182433389Y-58695431D01*
X182260490Y-58278017D01*
X182010413Y-58199192D01*
X181830808Y-58378797D01*
X181830808Y-58019587D01*
X181751983Y-57769510D01*
X181200903Y-57570023D01*
X180615431Y-57596611D01*
X180198017Y-57769510D01*
X180119192Y-58019587D01*
X180975000Y-58875395D01*
X181830808Y-58019587D01*
X181830808Y-58378797D01*
X181154605Y-59055000D01*
X182010413Y-59910808D01*
X182260490Y-59831983D01*
X182459977Y-59280903D01*
X182459977Y-77343000D01*
X181830808Y-77343000D01*
X181830808Y-60090413D01*
X180975000Y-59234605D01*
X180795395Y-59414210D01*
X180795395Y-59055000D01*
X179939587Y-58199192D01*
X179705836Y-58272870D01*
X179684647Y-58221589D01*
X179270591Y-57806810D01*
X178729323Y-57582056D01*
X178143248Y-57581545D01*
X177601589Y-57805353D01*
X177186810Y-58219409D01*
X176962056Y-58760677D01*
X176961545Y-59346752D01*
X177185353Y-59888411D01*
X177599409Y-60303190D01*
X178140677Y-60527944D01*
X178726752Y-60528455D01*
X179268411Y-60304647D01*
X179683190Y-59890591D01*
X179705441Y-59837004D01*
X179939587Y-59910808D01*
X180795395Y-59055000D01*
X180795395Y-59414210D01*
X180119192Y-60090413D01*
X180198017Y-60340490D01*
X180749097Y-60539977D01*
X181334569Y-60513389D01*
X181751983Y-60340490D01*
X181830808Y-60090413D01*
X181830808Y-77343000D01*
X172400630Y-77343000D01*
X166179499Y-71121869D01*
X166179687Y-70906216D01*
X166015689Y-70509311D01*
X165712286Y-70205378D01*
X165315668Y-70040687D01*
X164886216Y-70040313D01*
X164489311Y-70204311D01*
X164185378Y-70507714D01*
X164020687Y-70904332D01*
X164020313Y-71333784D01*
X164184311Y-71730689D01*
X164487714Y-72034622D01*
X164884332Y-72199313D01*
X165101872Y-72199502D01*
X171546185Y-78643816D01*
X171694376Y-78742834D01*
X171793395Y-78808996D01*
X171793396Y-78808996D01*
X172085000Y-78867000D01*
X191325388Y-78867000D01*
X191325313Y-78953784D01*
X191489311Y-79350689D01*
X191792714Y-79654622D01*
X192189332Y-79819313D01*
X192286355Y-79819397D01*
X191714753Y-80391000D01*
X191137641Y-80391000D01*
X190985286Y-80238378D01*
X190588668Y-80073687D01*
X190159216Y-80073313D01*
X189762311Y-80237311D01*
X189458378Y-80540714D01*
X189293687Y-80937332D01*
X189293313Y-81366784D01*
X189457311Y-81763689D01*
X189760714Y-82067622D01*
X190157332Y-82232313D01*
X190586784Y-82232687D01*
X190983689Y-82068689D01*
X191137646Y-81915000D01*
X192030383Y-81915000D01*
X192030383Y-81914999D01*
X192321987Y-81856996D01*
X192321988Y-81856996D01*
X192569198Y-81691815D01*
X196468355Y-77792657D01*
X196761332Y-77914313D01*
X197190784Y-77914687D01*
X197587689Y-77750689D01*
X197891622Y-77447286D01*
X198056313Y-77050668D01*
X198056687Y-76621216D01*
X198056687Y-89790270D01*
X197855149Y-89790270D01*
X197602530Y-89790270D01*
X197369141Y-89886943D01*
X197190513Y-90065572D01*
X197093840Y-90298961D01*
X197093840Y-91789250D01*
X197252590Y-91948000D01*
X199852280Y-91948000D01*
X199852280Y-92202000D01*
X197252590Y-92202000D01*
X197093840Y-92360750D01*
X197093840Y-93851039D01*
X197190513Y-94084428D01*
X197369141Y-94263057D01*
X197602530Y-94359730D01*
X197855149Y-94359730D01*
X199693530Y-94359730D01*
X199852280Y-94200980D01*
X199852280Y-95835000D01*
X195707242Y-95835000D01*
X195707242Y-87353339D01*
X195495010Y-86839697D01*
X195102370Y-86446371D01*
X194589100Y-86233243D01*
X194033339Y-86232758D01*
X193519697Y-86444990D01*
X193126371Y-86837630D01*
X193040050Y-87045512D01*
X192955010Y-86839697D01*
X192562370Y-86446371D01*
X192049100Y-86233243D01*
X191493339Y-86232758D01*
X190979697Y-86444990D01*
X190586371Y-86837630D01*
X190500050Y-87045512D01*
X190415010Y-86839697D01*
X190022370Y-86446371D01*
X189509100Y-86233243D01*
X188953339Y-86232758D01*
X188439697Y-86444990D01*
X188046371Y-86837630D01*
X187833243Y-87350900D01*
X187832758Y-87906661D01*
X187928345Y-88138000D01*
X174034450Y-88138000D01*
X172085000Y-88138000D01*
X171632879Y-88138000D01*
X167955630Y-88138000D01*
X165786276Y-85968645D01*
X165786276Y-83238917D01*
X165938898Y-83086562D01*
X166103589Y-82689944D01*
X166103963Y-82260492D01*
X165939965Y-81863587D01*
X165636562Y-81559654D01*
X165239944Y-81394963D01*
X164810492Y-81394589D01*
X164413587Y-81558587D01*
X164109654Y-81861990D01*
X163944963Y-82258608D01*
X163944589Y-82688060D01*
X164108587Y-83084965D01*
X164262276Y-83238922D01*
X164262276Y-86120093D01*
X160592099Y-89790270D01*
X159766000Y-89790270D01*
X159766000Y-60197310D01*
X159766000Y-59944691D01*
X159766000Y-57912691D01*
X159669327Y-57679302D01*
X159490699Y-57500673D01*
X159451187Y-57484306D01*
X159452188Y-57483379D01*
X159720983Y-56897946D01*
X159720983Y-56132054D01*
X159452188Y-55546621D01*
X158979818Y-55108615D01*
X158497944Y-54909025D01*
X158242000Y-55028164D01*
X158242000Y-56388000D01*
X159602367Y-56388000D01*
X159720983Y-56132054D01*
X159720983Y-56897946D01*
X159602367Y-56642000D01*
X158242000Y-56642000D01*
X158242000Y-56662000D01*
X157988000Y-56662000D01*
X157988000Y-56642000D01*
X157988000Y-56388000D01*
X157988000Y-55028164D01*
X157732056Y-54909025D01*
X157250182Y-55108615D01*
X156777812Y-55546621D01*
X156509017Y-56132054D01*
X156627633Y-56388000D01*
X157988000Y-56388000D01*
X157988000Y-56642000D01*
X156627633Y-56642000D01*
X156509017Y-56897946D01*
X156777812Y-57483379D01*
X156778812Y-57484307D01*
X156739302Y-57500673D01*
X156560673Y-57679301D01*
X156464000Y-57912690D01*
X156464000Y-58165309D01*
X156464000Y-60197309D01*
X156560673Y-60430698D01*
X156739301Y-60609327D01*
X156972690Y-60706000D01*
X157225309Y-60706000D01*
X159257309Y-60706000D01*
X159490698Y-60609327D01*
X159669327Y-60430699D01*
X159766000Y-60197310D01*
X159766000Y-89790270D01*
X159760401Y-89790270D01*
X159760401Y-87259418D01*
X159749774Y-86972411D01*
X159749774Y-76511306D01*
X159501462Y-75910345D01*
X159042073Y-75450154D01*
X158441547Y-75200794D01*
X157791306Y-75200226D01*
X157190345Y-75448538D01*
X156730154Y-75907927D01*
X156480794Y-76508453D01*
X156480226Y-77158694D01*
X156728538Y-77759655D01*
X157187927Y-78219846D01*
X157788453Y-78469206D01*
X158438694Y-78469774D01*
X159039655Y-78221462D01*
X159499846Y-77762073D01*
X159749206Y-77161547D01*
X159749774Y-76511306D01*
X159749774Y-86972411D01*
X159736341Y-86609623D01*
X159533965Y-86121042D01*
X159267163Y-86022443D01*
X159087557Y-86202048D01*
X159087557Y-85842837D01*
X158988958Y-85576035D01*
X158379418Y-85349599D01*
X157729623Y-85373659D01*
X157241042Y-85576035D01*
X157142443Y-85842837D01*
X158115000Y-86815395D01*
X159087557Y-85842837D01*
X159087557Y-86202048D01*
X158294605Y-86995000D01*
X159267163Y-87967557D01*
X159533965Y-87868958D01*
X159760401Y-87259418D01*
X159760401Y-89790270D01*
X159087557Y-89790270D01*
X159087557Y-88147163D01*
X158115000Y-87174605D01*
X157935395Y-87354210D01*
X157935395Y-86995000D01*
X156962837Y-86022443D01*
X156696035Y-86121042D01*
X156469599Y-86730582D01*
X156493659Y-87380377D01*
X156696035Y-87868958D01*
X156962837Y-87967557D01*
X157935395Y-86995000D01*
X157935395Y-87354210D01*
X157142443Y-88147163D01*
X157241042Y-88413965D01*
X157850582Y-88640401D01*
X158500377Y-88616341D01*
X158988958Y-88413965D01*
X159087557Y-88147163D01*
X159087557Y-89790270D01*
X157055241Y-89790270D01*
X156821852Y-89886943D01*
X156643223Y-90065571D01*
X156546550Y-90298960D01*
X156546550Y-90551579D01*
X156546550Y-93851039D01*
X156643223Y-94084428D01*
X156821851Y-94263057D01*
X157055240Y-94359730D01*
X157307859Y-94359730D01*
X161806199Y-94359730D01*
X162039588Y-94263057D01*
X162218217Y-94084429D01*
X162314890Y-93851040D01*
X162314890Y-93598421D01*
X162314890Y-90298961D01*
X162292565Y-90245064D01*
X165100000Y-87437630D01*
X167101184Y-89438815D01*
X167101185Y-89438815D01*
X167348395Y-89603996D01*
X167640000Y-89662000D01*
X171632879Y-89662000D01*
X171769370Y-89662000D01*
X172421550Y-90314180D01*
X172421550Y-90551579D01*
X172421550Y-93851039D01*
X172518223Y-94084428D01*
X172696851Y-94263057D01*
X172930240Y-94359730D01*
X173182859Y-94359730D01*
X177681199Y-94359730D01*
X177914588Y-94263057D01*
X178093217Y-94084429D01*
X178189890Y-93851040D01*
X178189890Y-93598421D01*
X178189890Y-90298961D01*
X178093217Y-90065572D01*
X177914589Y-89886943D01*
X177681200Y-89790270D01*
X177428581Y-89790270D01*
X174052900Y-89790270D01*
X173924630Y-89662000D01*
X174034450Y-89662000D01*
X187644370Y-89662000D01*
X188296550Y-90314180D01*
X188296550Y-90551579D01*
X188296550Y-93851039D01*
X188393223Y-94084428D01*
X188571851Y-94263057D01*
X188805240Y-94359730D01*
X189057859Y-94359730D01*
X193556199Y-94359730D01*
X193789588Y-94263057D01*
X193968217Y-94084429D01*
X194064890Y-93851040D01*
X194064890Y-93598421D01*
X194064890Y-90298961D01*
X193968217Y-90065572D01*
X193789589Y-89886943D01*
X193556200Y-89790270D01*
X193303581Y-89790270D01*
X189927899Y-89790270D01*
X189164573Y-89026943D01*
X189506661Y-89027242D01*
X190020303Y-88815010D01*
X190413629Y-88422370D01*
X190499949Y-88214487D01*
X190584990Y-88420303D01*
X190977630Y-88813629D01*
X191490900Y-89026757D01*
X192046661Y-89027242D01*
X192560303Y-88815010D01*
X192953629Y-88422370D01*
X193039949Y-88214487D01*
X193124990Y-88420303D01*
X193517630Y-88813629D01*
X194030900Y-89026757D01*
X194586661Y-89027242D01*
X195100303Y-88815010D01*
X195493629Y-88422370D01*
X195706757Y-87909100D01*
X195707242Y-87353339D01*
X195707242Y-95835000D01*
X186989720Y-95835000D01*
X186989720Y-93851039D01*
X186989720Y-92360750D01*
X186989720Y-91789250D01*
X186989720Y-90298961D01*
X186893047Y-90065572D01*
X186714419Y-89886943D01*
X186481030Y-89790270D01*
X186228411Y-89790270D01*
X184390030Y-89790270D01*
X184231280Y-89949020D01*
X184231280Y-91948000D01*
X186830970Y-91948000D01*
X186989720Y-91789250D01*
X186989720Y-92360750D01*
X186830970Y-92202000D01*
X184231280Y-92202000D01*
X184231280Y-94200980D01*
X184390030Y-94359730D01*
X186228411Y-94359730D01*
X186481030Y-94359730D01*
X186714419Y-94263057D01*
X186893047Y-94084428D01*
X186989720Y-93851039D01*
X186989720Y-95835000D01*
X183977280Y-95835000D01*
X183977280Y-94200980D01*
X183977280Y-92202000D01*
X183977280Y-91948000D01*
X183977280Y-89949020D01*
X183818530Y-89790270D01*
X181980149Y-89790270D01*
X181727530Y-89790270D01*
X181494141Y-89886943D01*
X181315513Y-90065572D01*
X181218840Y-90298961D01*
X181218840Y-91789250D01*
X181377590Y-91948000D01*
X183977280Y-91948000D01*
X183977280Y-92202000D01*
X181377590Y-92202000D01*
X181218840Y-92360750D01*
X181218840Y-93851039D01*
X181315513Y-94084428D01*
X181494141Y-94263057D01*
X181727530Y-94359730D01*
X181980149Y-94359730D01*
X183818530Y-94359730D01*
X183977280Y-94200980D01*
X183977280Y-95835000D01*
X171114720Y-95835000D01*
X171114720Y-93851039D01*
X171114720Y-92360750D01*
X171114720Y-91789250D01*
X171114720Y-90298961D01*
X171018047Y-90065572D01*
X170839419Y-89886943D01*
X170606030Y-89790270D01*
X170353411Y-89790270D01*
X168515030Y-89790270D01*
X168356280Y-89949020D01*
X168356280Y-91948000D01*
X170955970Y-91948000D01*
X171114720Y-91789250D01*
X171114720Y-92360750D01*
X170955970Y-92202000D01*
X168356280Y-92202000D01*
X168356280Y-94200980D01*
X168515030Y-94359730D01*
X170353411Y-94359730D01*
X170606030Y-94359730D01*
X170839419Y-94263057D01*
X171018047Y-94084428D01*
X171114720Y-93851039D01*
X171114720Y-95835000D01*
X168102280Y-95835000D01*
X168102280Y-94200980D01*
X168102280Y-92202000D01*
X168102280Y-91948000D01*
X168102280Y-89949020D01*
X167943530Y-89790270D01*
X166105149Y-89790270D01*
X165852530Y-89790270D01*
X165619141Y-89886943D01*
X165440513Y-90065572D01*
X165343840Y-90298961D01*
X165343840Y-91789250D01*
X165502590Y-91948000D01*
X168102280Y-91948000D01*
X168102280Y-92202000D01*
X165502590Y-92202000D01*
X165343840Y-92360750D01*
X165343840Y-93851039D01*
X165440513Y-94084428D01*
X165619141Y-94263057D01*
X165852530Y-94359730D01*
X166105149Y-94359730D01*
X167943530Y-94359730D01*
X168102280Y-94200980D01*
X168102280Y-95835000D01*
X157547467Y-95835000D01*
X156775257Y-95681397D01*
X156177806Y-95282193D01*
X155778601Y-94684741D01*
X155625000Y-93912532D01*
X155625000Y-56582467D01*
X155778601Y-55810258D01*
X156177806Y-55212806D01*
X156775257Y-54813602D01*
X157547467Y-54660000D01*
X201862532Y-54660000D01*
X202634741Y-54813601D01*
X203232193Y-55212806D01*
X203631397Y-55810257D01*
X203785000Y-56582467D01*
X203785000Y-93912532D01*
X203785000Y-93912532D01*
G37*
X203785000Y-93912532D02*
X203631397Y-94684742D01*
X203555124Y-94798892D01*
X203555124Y-60636205D01*
X203306734Y-60035057D01*
X202847203Y-59574722D01*
X202246488Y-59325284D01*
X201596045Y-59324716D01*
X200994897Y-59573106D01*
X200534562Y-60032637D01*
X200285124Y-60633352D01*
X200284556Y-61283795D01*
X200532946Y-61884943D01*
X200992477Y-62345278D01*
X201593192Y-62594716D01*
X202243635Y-62595284D01*
X202844783Y-62346894D01*
X203305118Y-61887363D01*
X203554556Y-61286648D01*
X203555124Y-60636205D01*
X203555124Y-94798892D01*
X203232193Y-95282193D01*
X202864720Y-95527730D01*
X202864720Y-93851039D01*
X202864720Y-92360750D01*
X202864720Y-91789250D01*
X202864720Y-90298961D01*
X202768047Y-90065572D01*
X202589419Y-89886943D01*
X202356030Y-89790270D01*
X202103411Y-89790270D01*
X200265030Y-89790270D01*
X200106280Y-89949020D01*
X200106280Y-91948000D01*
X202705970Y-91948000D01*
X202864720Y-91789250D01*
X202864720Y-92360750D01*
X202705970Y-92202000D01*
X200106280Y-92202000D01*
X200106280Y-94200980D01*
X200265030Y-94359730D01*
X202103411Y-94359730D01*
X202356030Y-94359730D01*
X202589419Y-94263057D01*
X202768047Y-94084428D01*
X202864720Y-93851039D01*
X202864720Y-95527730D01*
X202634741Y-95681398D01*
X201862532Y-95835000D01*
X199852280Y-95835000D01*
X199852280Y-94200980D01*
X199852280Y-92202000D01*
X199852280Y-91948000D01*
X199852280Y-89949020D01*
X199693530Y-89790270D01*
X198056687Y-89790270D01*
X198056687Y-76621216D01*
X197892689Y-76224311D01*
X197589286Y-75920378D01*
X197192668Y-75755687D01*
X196763216Y-75755313D01*
X196366311Y-75919311D01*
X196178503Y-76106791D01*
X196178502Y-76106791D01*
X196056778Y-76131004D01*
X195966068Y-76191614D01*
X195966068Y-61224539D01*
X195942016Y-60574540D01*
X195739547Y-60085736D01*
X195472692Y-59987073D01*
X195293087Y-60166678D01*
X195293087Y-59807468D01*
X195194424Y-59540613D01*
X194584699Y-59314092D01*
X193934700Y-59338144D01*
X193445896Y-59540613D01*
X193347233Y-59807468D01*
X194320160Y-60780395D01*
X195293087Y-59807468D01*
X195293087Y-60166678D01*
X194499765Y-60960000D01*
X195472692Y-61932927D01*
X195739547Y-61834264D01*
X195966068Y-61224539D01*
X195966068Y-76191614D01*
X195809568Y-76296185D01*
X195293087Y-76812665D01*
X195293087Y-62112532D01*
X194320160Y-61139605D01*
X194140555Y-61319210D01*
X194140555Y-60960000D01*
X193167628Y-59987073D01*
X192900773Y-60085736D01*
X192674252Y-60695461D01*
X192698304Y-61345460D01*
X192900773Y-61834264D01*
X193167628Y-61932927D01*
X194140555Y-60960000D01*
X194140555Y-61319210D01*
X193347233Y-62112532D01*
X193445896Y-62379387D01*
X194055621Y-62605908D01*
X194705620Y-62581856D01*
X195194424Y-62379387D01*
X195293087Y-62112532D01*
X195293087Y-76812665D01*
X193484604Y-78621148D01*
X193484687Y-78526216D01*
X193320689Y-78129311D01*
X193017286Y-77825378D01*
X192620668Y-77660687D01*
X192403127Y-77660497D01*
X192308815Y-77566185D01*
X192061605Y-77401004D01*
X191770000Y-77343000D01*
X190079977Y-77343000D01*
X190079977Y-59280903D01*
X190053389Y-58695431D01*
X189880490Y-58278017D01*
X189630413Y-58199192D01*
X189450808Y-58378797D01*
X189450808Y-58019587D01*
X189371983Y-57769510D01*
X188820903Y-57570023D01*
X188235431Y-57596611D01*
X187818017Y-57769510D01*
X187739192Y-58019587D01*
X188595000Y-58875395D01*
X189450808Y-58019587D01*
X189450808Y-58378797D01*
X188774605Y-59055000D01*
X189630413Y-59910808D01*
X189880490Y-59831983D01*
X190079977Y-59280903D01*
X190079977Y-77343000D01*
X189450808Y-77343000D01*
X189450808Y-60090413D01*
X188595000Y-59234605D01*
X188415395Y-59414210D01*
X188415395Y-59055000D01*
X187559587Y-58199192D01*
X187325836Y-58272870D01*
X187304647Y-58221589D01*
X186890591Y-57806810D01*
X186349323Y-57582056D01*
X185763248Y-57581545D01*
X185221589Y-57805353D01*
X184806810Y-58219409D01*
X184582056Y-58760677D01*
X184581545Y-59346752D01*
X184805353Y-59888411D01*
X185219409Y-60303190D01*
X185760677Y-60527944D01*
X186346752Y-60528455D01*
X186888411Y-60304647D01*
X187303190Y-59890591D01*
X187325441Y-59837004D01*
X187559587Y-59910808D01*
X188415395Y-59055000D01*
X188415395Y-59414210D01*
X187739192Y-60090413D01*
X187818017Y-60340490D01*
X188369097Y-60539977D01*
X188954569Y-60513389D01*
X189371983Y-60340490D01*
X189450808Y-60090413D01*
X189450808Y-77343000D01*
X182459977Y-77343000D01*
X182459977Y-59280903D01*
X182433389Y-58695431D01*
X182260490Y-58278017D01*
X182010413Y-58199192D01*
X181830808Y-58378797D01*
X181830808Y-58019587D01*
X181751983Y-57769510D01*
X181200903Y-57570023D01*
X180615431Y-57596611D01*
X180198017Y-57769510D01*
X180119192Y-58019587D01*
X180975000Y-58875395D01*
X181830808Y-58019587D01*
X181830808Y-58378797D01*
X181154605Y-59055000D01*
X182010413Y-59910808D01*
X182260490Y-59831983D01*
X182459977Y-59280903D01*
X182459977Y-77343000D01*
X181830808Y-77343000D01*
X181830808Y-60090413D01*
X180975000Y-59234605D01*
X180795395Y-59414210D01*
X180795395Y-59055000D01*
X179939587Y-58199192D01*
X179705836Y-58272870D01*
X179684647Y-58221589D01*
X179270591Y-57806810D01*
X178729323Y-57582056D01*
X178143248Y-57581545D01*
X177601589Y-57805353D01*
X177186810Y-58219409D01*
X176962056Y-58760677D01*
X176961545Y-59346752D01*
X177185353Y-59888411D01*
X177599409Y-60303190D01*
X178140677Y-60527944D01*
X178726752Y-60528455D01*
X179268411Y-60304647D01*
X179683190Y-59890591D01*
X179705441Y-59837004D01*
X179939587Y-59910808D01*
X180795395Y-59055000D01*
X180795395Y-59414210D01*
X180119192Y-60090413D01*
X180198017Y-60340490D01*
X180749097Y-60539977D01*
X181334569Y-60513389D01*
X181751983Y-60340490D01*
X181830808Y-60090413D01*
X181830808Y-77343000D01*
X172400630Y-77343000D01*
X166179499Y-71121869D01*
X166179687Y-70906216D01*
X166015689Y-70509311D01*
X165712286Y-70205378D01*
X165315668Y-70040687D01*
X164886216Y-70040313D01*
X164489311Y-70204311D01*
X164185378Y-70507714D01*
X164020687Y-70904332D01*
X164020313Y-71333784D01*
X164184311Y-71730689D01*
X164487714Y-72034622D01*
X164884332Y-72199313D01*
X165101872Y-72199502D01*
X171546185Y-78643816D01*
X171694376Y-78742834D01*
X171793395Y-78808996D01*
X171793396Y-78808996D01*
X172085000Y-78867000D01*
X191325388Y-78867000D01*
X191325313Y-78953784D01*
X191489311Y-79350689D01*
X191792714Y-79654622D01*
X192189332Y-79819313D01*
X192286355Y-79819397D01*
X191714753Y-80391000D01*
X191137641Y-80391000D01*
X190985286Y-80238378D01*
X190588668Y-80073687D01*
X190159216Y-80073313D01*
X189762311Y-80237311D01*
X189458378Y-80540714D01*
X189293687Y-80937332D01*
X189293313Y-81366784D01*
X189457311Y-81763689D01*
X189760714Y-82067622D01*
X190157332Y-82232313D01*
X190586784Y-82232687D01*
X190983689Y-82068689D01*
X191137646Y-81915000D01*
X192030383Y-81915000D01*
X192030383Y-81914999D01*
X192321987Y-81856996D01*
X192321988Y-81856996D01*
X192569198Y-81691815D01*
X196468355Y-77792657D01*
X196761332Y-77914313D01*
X197190784Y-77914687D01*
X197587689Y-77750689D01*
X197891622Y-77447286D01*
X198056313Y-77050668D01*
X198056687Y-76621216D01*
X198056687Y-89790270D01*
X197855149Y-89790270D01*
X197602530Y-89790270D01*
X197369141Y-89886943D01*
X197190513Y-90065572D01*
X197093840Y-90298961D01*
X197093840Y-91789250D01*
X197252590Y-91948000D01*
X199852280Y-91948000D01*
X199852280Y-92202000D01*
X197252590Y-92202000D01*
X197093840Y-92360750D01*
X197093840Y-93851039D01*
X197190513Y-94084428D01*
X197369141Y-94263057D01*
X197602530Y-94359730D01*
X197855149Y-94359730D01*
X199693530Y-94359730D01*
X199852280Y-94200980D01*
X199852280Y-95835000D01*
X195707242Y-95835000D01*
X195707242Y-87353339D01*
X195495010Y-86839697D01*
X195102370Y-86446371D01*
X194589100Y-86233243D01*
X194033339Y-86232758D01*
X193519697Y-86444990D01*
X193126371Y-86837630D01*
X193040050Y-87045512D01*
X192955010Y-86839697D01*
X192562370Y-86446371D01*
X192049100Y-86233243D01*
X191493339Y-86232758D01*
X190979697Y-86444990D01*
X190586371Y-86837630D01*
X190500050Y-87045512D01*
X190415010Y-86839697D01*
X190022370Y-86446371D01*
X189509100Y-86233243D01*
X188953339Y-86232758D01*
X188439697Y-86444990D01*
X188046371Y-86837630D01*
X187833243Y-87350900D01*
X187832758Y-87906661D01*
X187928345Y-88138000D01*
X174034450Y-88138000D01*
X172085000Y-88138000D01*
X171632879Y-88138000D01*
X167955630Y-88138000D01*
X165786276Y-85968645D01*
X165786276Y-83238917D01*
X165938898Y-83086562D01*
X166103589Y-82689944D01*
X166103963Y-82260492D01*
X165939965Y-81863587D01*
X165636562Y-81559654D01*
X165239944Y-81394963D01*
X164810492Y-81394589D01*
X164413587Y-81558587D01*
X164109654Y-81861990D01*
X163944963Y-82258608D01*
X163944589Y-82688060D01*
X164108587Y-83084965D01*
X164262276Y-83238922D01*
X164262276Y-86120093D01*
X160592099Y-89790270D01*
X159766000Y-89790270D01*
X159766000Y-60197310D01*
X159766000Y-59944691D01*
X159766000Y-57912691D01*
X159669327Y-57679302D01*
X159490699Y-57500673D01*
X159451187Y-57484306D01*
X159452188Y-57483379D01*
X159720983Y-56897946D01*
X159720983Y-56132054D01*
X159452188Y-55546621D01*
X158979818Y-55108615D01*
X158497944Y-54909025D01*
X158242000Y-55028164D01*
X158242000Y-56388000D01*
X159602367Y-56388000D01*
X159720983Y-56132054D01*
X159720983Y-56897946D01*
X159602367Y-56642000D01*
X158242000Y-56642000D01*
X158242000Y-56662000D01*
X157988000Y-56662000D01*
X157988000Y-56642000D01*
X157988000Y-56388000D01*
X157988000Y-55028164D01*
X157732056Y-54909025D01*
X157250182Y-55108615D01*
X156777812Y-55546621D01*
X156509017Y-56132054D01*
X156627633Y-56388000D01*
X157988000Y-56388000D01*
X157988000Y-56642000D01*
X156627633Y-56642000D01*
X156509017Y-56897946D01*
X156777812Y-57483379D01*
X156778812Y-57484307D01*
X156739302Y-57500673D01*
X156560673Y-57679301D01*
X156464000Y-57912690D01*
X156464000Y-58165309D01*
X156464000Y-60197309D01*
X156560673Y-60430698D01*
X156739301Y-60609327D01*
X156972690Y-60706000D01*
X157225309Y-60706000D01*
X159257309Y-60706000D01*
X159490698Y-60609327D01*
X159669327Y-60430699D01*
X159766000Y-60197310D01*
X159766000Y-89790270D01*
X159760401Y-89790270D01*
X159760401Y-87259418D01*
X159749774Y-86972411D01*
X159749774Y-76511306D01*
X159501462Y-75910345D01*
X159042073Y-75450154D01*
X158441547Y-75200794D01*
X157791306Y-75200226D01*
X157190345Y-75448538D01*
X156730154Y-75907927D01*
X156480794Y-76508453D01*
X156480226Y-77158694D01*
X156728538Y-77759655D01*
X157187927Y-78219846D01*
X157788453Y-78469206D01*
X158438694Y-78469774D01*
X159039655Y-78221462D01*
X159499846Y-77762073D01*
X159749206Y-77161547D01*
X159749774Y-76511306D01*
X159749774Y-86972411D01*
X159736341Y-86609623D01*
X159533965Y-86121042D01*
X159267163Y-86022443D01*
X159087557Y-86202048D01*
X159087557Y-85842837D01*
X158988958Y-85576035D01*
X158379418Y-85349599D01*
X157729623Y-85373659D01*
X157241042Y-85576035D01*
X157142443Y-85842837D01*
X158115000Y-86815395D01*
X159087557Y-85842837D01*
X159087557Y-86202048D01*
X158294605Y-86995000D01*
X159267163Y-87967557D01*
X159533965Y-87868958D01*
X159760401Y-87259418D01*
X159760401Y-89790270D01*
X159087557Y-89790270D01*
X159087557Y-88147163D01*
X158115000Y-87174605D01*
X157935395Y-87354210D01*
X157935395Y-86995000D01*
X156962837Y-86022443D01*
X156696035Y-86121042D01*
X156469599Y-86730582D01*
X156493659Y-87380377D01*
X156696035Y-87868958D01*
X156962837Y-87967557D01*
X157935395Y-86995000D01*
X157935395Y-87354210D01*
X157142443Y-88147163D01*
X157241042Y-88413965D01*
X157850582Y-88640401D01*
X158500377Y-88616341D01*
X158988958Y-88413965D01*
X159087557Y-88147163D01*
X159087557Y-89790270D01*
X157055241Y-89790270D01*
X156821852Y-89886943D01*
X156643223Y-90065571D01*
X156546550Y-90298960D01*
X156546550Y-90551579D01*
X156546550Y-93851039D01*
X156643223Y-94084428D01*
X156821851Y-94263057D01*
X157055240Y-94359730D01*
X157307859Y-94359730D01*
X161806199Y-94359730D01*
X162039588Y-94263057D01*
X162218217Y-94084429D01*
X162314890Y-93851040D01*
X162314890Y-93598421D01*
X162314890Y-90298961D01*
X162292565Y-90245064D01*
X165100000Y-87437630D01*
X167101184Y-89438815D01*
X167101185Y-89438815D01*
X167348395Y-89603996D01*
X167640000Y-89662000D01*
X171632879Y-89662000D01*
X171769370Y-89662000D01*
X172421550Y-90314180D01*
X172421550Y-90551579D01*
X172421550Y-93851039D01*
X172518223Y-94084428D01*
X172696851Y-94263057D01*
X172930240Y-94359730D01*
X173182859Y-94359730D01*
X177681199Y-94359730D01*
X177914588Y-94263057D01*
X178093217Y-94084429D01*
X178189890Y-93851040D01*
X178189890Y-93598421D01*
X178189890Y-90298961D01*
X178093217Y-90065572D01*
X177914589Y-89886943D01*
X177681200Y-89790270D01*
X177428581Y-89790270D01*
X174052900Y-89790270D01*
X173924630Y-89662000D01*
X174034450Y-89662000D01*
X187644370Y-89662000D01*
X188296550Y-90314180D01*
X188296550Y-90551579D01*
X188296550Y-93851039D01*
X188393223Y-94084428D01*
X188571851Y-94263057D01*
X188805240Y-94359730D01*
X189057859Y-94359730D01*
X193556199Y-94359730D01*
X193789588Y-94263057D01*
X193968217Y-94084429D01*
X194064890Y-93851040D01*
X194064890Y-93598421D01*
X194064890Y-90298961D01*
X193968217Y-90065572D01*
X193789589Y-89886943D01*
X193556200Y-89790270D01*
X193303581Y-89790270D01*
X189927899Y-89790270D01*
X189164573Y-89026943D01*
X189506661Y-89027242D01*
X190020303Y-88815010D01*
X190413629Y-88422370D01*
X190499949Y-88214487D01*
X190584990Y-88420303D01*
X190977630Y-88813629D01*
X191490900Y-89026757D01*
X192046661Y-89027242D01*
X192560303Y-88815010D01*
X192953629Y-88422370D01*
X193039949Y-88214487D01*
X193124990Y-88420303D01*
X193517630Y-88813629D01*
X194030900Y-89026757D01*
X194586661Y-89027242D01*
X195100303Y-88815010D01*
X195493629Y-88422370D01*
X195706757Y-87909100D01*
X195707242Y-87353339D01*
X195707242Y-95835000D01*
X186989720Y-95835000D01*
X186989720Y-93851039D01*
X186989720Y-92360750D01*
X186989720Y-91789250D01*
X186989720Y-90298961D01*
X186893047Y-90065572D01*
X186714419Y-89886943D01*
X186481030Y-89790270D01*
X186228411Y-89790270D01*
X184390030Y-89790270D01*
X184231280Y-89949020D01*
X184231280Y-91948000D01*
X186830970Y-91948000D01*
X186989720Y-91789250D01*
X186989720Y-92360750D01*
X186830970Y-92202000D01*
X184231280Y-92202000D01*
X184231280Y-94200980D01*
X184390030Y-94359730D01*
X186228411Y-94359730D01*
X186481030Y-94359730D01*
X186714419Y-94263057D01*
X186893047Y-94084428D01*
X186989720Y-93851039D01*
X186989720Y-95835000D01*
X183977280Y-95835000D01*
X183977280Y-94200980D01*
X183977280Y-92202000D01*
X183977280Y-91948000D01*
X183977280Y-89949020D01*
X183818530Y-89790270D01*
X181980149Y-89790270D01*
X181727530Y-89790270D01*
X181494141Y-89886943D01*
X181315513Y-90065572D01*
X181218840Y-90298961D01*
X181218840Y-91789250D01*
X181377590Y-91948000D01*
X183977280Y-91948000D01*
X183977280Y-92202000D01*
X181377590Y-92202000D01*
X181218840Y-92360750D01*
X181218840Y-93851039D01*
X181315513Y-94084428D01*
X181494141Y-94263057D01*
X181727530Y-94359730D01*
X181980149Y-94359730D01*
X183818530Y-94359730D01*
X183977280Y-94200980D01*
X183977280Y-95835000D01*
X171114720Y-95835000D01*
X171114720Y-93851039D01*
X171114720Y-92360750D01*
X171114720Y-91789250D01*
X171114720Y-90298961D01*
X171018047Y-90065572D01*
X170839419Y-89886943D01*
X170606030Y-89790270D01*
X170353411Y-89790270D01*
X168515030Y-89790270D01*
X168356280Y-89949020D01*
X168356280Y-91948000D01*
X170955970Y-91948000D01*
X171114720Y-91789250D01*
X171114720Y-92360750D01*
X170955970Y-92202000D01*
X168356280Y-92202000D01*
X168356280Y-94200980D01*
X168515030Y-94359730D01*
X170353411Y-94359730D01*
X170606030Y-94359730D01*
X170839419Y-94263057D01*
X171018047Y-94084428D01*
X171114720Y-93851039D01*
X171114720Y-95835000D01*
X168102280Y-95835000D01*
X168102280Y-94200980D01*
X168102280Y-92202000D01*
X168102280Y-91948000D01*
X168102280Y-89949020D01*
X167943530Y-89790270D01*
X166105149Y-89790270D01*
X165852530Y-89790270D01*
X165619141Y-89886943D01*
X165440513Y-90065572D01*
X165343840Y-90298961D01*
X165343840Y-91789250D01*
X165502590Y-91948000D01*
X168102280Y-91948000D01*
X168102280Y-92202000D01*
X165502590Y-92202000D01*
X165343840Y-92360750D01*
X165343840Y-93851039D01*
X165440513Y-94084428D01*
X165619141Y-94263057D01*
X165852530Y-94359730D01*
X166105149Y-94359730D01*
X167943530Y-94359730D01*
X168102280Y-94200980D01*
X168102280Y-95835000D01*
X157547467Y-95835000D01*
X156775257Y-95681397D01*
X156177806Y-95282193D01*
X155778601Y-94684741D01*
X155625000Y-93912532D01*
X155625000Y-56582467D01*
X155778601Y-55810258D01*
X156177806Y-55212806D01*
X156775257Y-54813602D01*
X157547467Y-54660000D01*
X201862532Y-54660000D01*
X202634741Y-54813601D01*
X203232193Y-55212806D01*
X203631397Y-55810257D01*
X203785000Y-56582467D01*
X203785000Y-93912532D01*
M02*
