M48
METRIC,TZ
T1C0.635
T2C0.813
T3C1.001
T4C1.016
%
G90
G05
T1
X160020Y-71120
X165024Y-82474
X165100Y-71120
X167640Y-85725
X168529Y-82677
X169545Y-71247
X171450Y-85725
X184150Y-67945
X190373Y-81153
X190393Y-83078
X192405Y-78740
X196977Y-76835
T2
X178435Y-59055
X180975Y-59055
X186055Y-59055
X188595Y-59055
X189230Y-87630
X191770Y-87630
X194310Y-87630
T3
X158115Y-76835
X158115Y-86995
X194320Y-60960
X201920Y-60960
T4
X158115Y-56515
X158115Y-59055
T0
M30
