%FSLAX46Y46*%
G04 Gerber Fmt 4.6, Leading zero omitted, Abs format (unit mm)*
G04 Created by KiCad (PCBNEW (2014-09-22 BZR 5144)-product) date Sun 26 Oct 2014 02:54:13 PM CET*
%MOMM*%
G01*
G04 APERTURE LIST*
%ADD10C,0.100000*%
%ADD11C,0.200000*%
%ADD12C,0.300000*%
%ADD13C,0.381000*%
G04 APERTURE END LIST*
D10*
X199235477Y-86768810D02*
X199235477Y-87268810D01*
X199354524Y-87268810D01*
X199425953Y-87245000D01*
X199473572Y-87197381D01*
X199497381Y-87149762D01*
X199521191Y-87054524D01*
X199521191Y-86983095D01*
X199497381Y-86887857D01*
X199473572Y-86840238D01*
X199425953Y-86792619D01*
X199354524Y-86768810D01*
X199235477Y-86768810D01*
X199735477Y-86768810D02*
X199735477Y-87102143D01*
X199735477Y-87268810D02*
X199711667Y-87245000D01*
X199735477Y-87221190D01*
X199759286Y-87245000D01*
X199735477Y-87268810D01*
X199735477Y-87221190D01*
X200045000Y-86768810D02*
X199997381Y-86792619D01*
X199973572Y-86816429D01*
X199949762Y-86864048D01*
X199949762Y-87006905D01*
X199973572Y-87054524D01*
X199997381Y-87078333D01*
X200045000Y-87102143D01*
X200116429Y-87102143D01*
X200164048Y-87078333D01*
X200187857Y-87054524D01*
X200211667Y-87006905D01*
X200211667Y-86864048D01*
X200187857Y-86816429D01*
X200164048Y-86792619D01*
X200116429Y-86768810D01*
X200045000Y-86768810D01*
X200640238Y-86768810D02*
X200640238Y-87268810D01*
X200640238Y-86792619D02*
X200592619Y-86768810D01*
X200497381Y-86768810D01*
X200449762Y-86792619D01*
X200425953Y-86816429D01*
X200402143Y-86864048D01*
X200402143Y-87006905D01*
X200425953Y-87054524D01*
X200449762Y-87078333D01*
X200497381Y-87102143D01*
X200592619Y-87102143D01*
X200640238Y-87078333D01*
X201068810Y-86792619D02*
X201021191Y-86768810D01*
X200925953Y-86768810D01*
X200878334Y-86792619D01*
X200854524Y-86840238D01*
X200854524Y-87030714D01*
X200878334Y-87078333D01*
X200925953Y-87102143D01*
X201021191Y-87102143D01*
X201068810Y-87078333D01*
X201092619Y-87030714D01*
X201092619Y-86983095D01*
X200854524Y-86935476D01*
X201902142Y-86768810D02*
X201902142Y-87030714D01*
X201878333Y-87078333D01*
X201830714Y-87102143D01*
X201735476Y-87102143D01*
X201687857Y-87078333D01*
X201902142Y-86792619D02*
X201854523Y-86768810D01*
X201735476Y-86768810D01*
X201687857Y-86792619D01*
X201664047Y-86840238D01*
X201664047Y-86887857D01*
X201687857Y-86935476D01*
X201735476Y-86959286D01*
X201854523Y-86959286D01*
X201902142Y-86983095D01*
X202140238Y-86768810D02*
X202140238Y-87102143D01*
X202140238Y-87006905D02*
X202164047Y-87054524D01*
X202187857Y-87078333D01*
X202235476Y-87102143D01*
X202283095Y-87102143D01*
X202449762Y-86768810D02*
X202449762Y-87102143D01*
X202449762Y-87006905D02*
X202473571Y-87054524D01*
X202497381Y-87078333D01*
X202545000Y-87102143D01*
X202592619Y-87102143D01*
X202973571Y-86768810D02*
X202973571Y-87030714D01*
X202949762Y-87078333D01*
X202902143Y-87102143D01*
X202806905Y-87102143D01*
X202759286Y-87078333D01*
X202973571Y-86792619D02*
X202925952Y-86768810D01*
X202806905Y-86768810D01*
X202759286Y-86792619D01*
X202735476Y-86840238D01*
X202735476Y-86887857D01*
X202759286Y-86935476D01*
X202806905Y-86959286D01*
X202925952Y-86959286D01*
X202973571Y-86983095D01*
X203164048Y-87102143D02*
X203283095Y-86768810D01*
X203402143Y-87102143D02*
X203283095Y-86768810D01*
X203235476Y-86649762D01*
X203211667Y-86625952D01*
X203164048Y-86602143D01*
D11*
X203835000Y-86360000D02*
X155575000Y-86360000D01*
X203835000Y-95885000D02*
X203835000Y-86360000D01*
X155575000Y-95885000D02*
X203835000Y-95885000D01*
X155575000Y-86360000D02*
X155575000Y-95885000D01*
D12*
X160509571Y-54891857D02*
X160723857Y-54820429D01*
X161081000Y-54820429D01*
X161223857Y-54891857D01*
X161295286Y-54963286D01*
X161366714Y-55106143D01*
X161366714Y-55249000D01*
X161295286Y-55391857D01*
X161223857Y-55463286D01*
X161081000Y-55534714D01*
X160795286Y-55606143D01*
X160652428Y-55677571D01*
X160581000Y-55749000D01*
X160509571Y-55891857D01*
X160509571Y-56034714D01*
X160581000Y-56177571D01*
X160652428Y-56249000D01*
X160795286Y-56320429D01*
X161152428Y-56320429D01*
X161366714Y-56249000D01*
X162652428Y-54820429D02*
X162652428Y-55606143D01*
X162580999Y-55749000D01*
X162438142Y-55820429D01*
X162152428Y-55820429D01*
X162009571Y-55749000D01*
X162652428Y-54891857D02*
X162509571Y-54820429D01*
X162152428Y-54820429D01*
X162009571Y-54891857D01*
X161938142Y-55034714D01*
X161938142Y-55177571D01*
X162009571Y-55320429D01*
X162152428Y-55391857D01*
X162509571Y-55391857D01*
X162652428Y-55463286D01*
X163581000Y-54820429D02*
X163438142Y-54891857D01*
X163366714Y-55034714D01*
X163366714Y-56320429D01*
X164795285Y-54820429D02*
X164795285Y-55606143D01*
X164723856Y-55749000D01*
X164580999Y-55820429D01*
X164295285Y-55820429D01*
X164152428Y-55749000D01*
X164795285Y-54891857D02*
X164652428Y-54820429D01*
X164295285Y-54820429D01*
X164152428Y-54891857D01*
X164080999Y-55034714D01*
X164080999Y-55177571D01*
X164152428Y-55320429D01*
X164295285Y-55391857D01*
X164652428Y-55391857D01*
X164795285Y-55463286D01*
X165509571Y-54820429D02*
X165509571Y-56320429D01*
X166152428Y-54820429D02*
X166152428Y-55606143D01*
X166080999Y-55749000D01*
X165938142Y-55820429D01*
X165723857Y-55820429D01*
X165580999Y-55749000D01*
X165509571Y-55677571D01*
X166866714Y-55391857D02*
X168009571Y-55391857D01*
X168723857Y-55606143D02*
X169223857Y-55606143D01*
X169438143Y-54820429D02*
X168723857Y-54820429D01*
X168723857Y-56320429D01*
X169438143Y-56320429D01*
X170723857Y-54820429D02*
X170723857Y-56320429D01*
X170723857Y-54891857D02*
X170581000Y-54820429D01*
X170295286Y-54820429D01*
X170152428Y-54891857D01*
X170081000Y-54963286D01*
X170009571Y-55106143D01*
X170009571Y-55534714D01*
X170081000Y-55677571D01*
X170152428Y-55749000D01*
X170295286Y-55820429D01*
X170581000Y-55820429D01*
X170723857Y-55749000D01*
X172081000Y-54820429D02*
X172081000Y-56320429D01*
X172081000Y-54891857D02*
X171938143Y-54820429D01*
X171652429Y-54820429D01*
X171509571Y-54891857D01*
X171438143Y-54963286D01*
X171366714Y-55106143D01*
X171366714Y-55534714D01*
X171438143Y-55677571D01*
X171509571Y-55749000D01*
X171652429Y-55820429D01*
X171938143Y-55820429D01*
X172081000Y-55749000D01*
X172795286Y-54820429D02*
X172795286Y-55820429D01*
X172795286Y-56320429D02*
X172723857Y-56249000D01*
X172795286Y-56177571D01*
X172866714Y-56249000D01*
X172795286Y-56320429D01*
X172795286Y-56177571D01*
X173509572Y-55820429D02*
X173509572Y-54820429D01*
X173509572Y-55677571D02*
X173581000Y-55749000D01*
X173723858Y-55820429D01*
X173938143Y-55820429D01*
X174081000Y-55749000D01*
X174152429Y-55606143D01*
X174152429Y-54820429D01*
X175438143Y-54891857D02*
X175295286Y-54820429D01*
X175009572Y-54820429D01*
X174866715Y-54891857D01*
X174795286Y-55034714D01*
X174795286Y-55606143D01*
X174866715Y-55749000D01*
X175009572Y-55820429D01*
X175295286Y-55820429D01*
X175438143Y-55749000D01*
X175509572Y-55606143D01*
X175509572Y-55463286D01*
X174795286Y-55320429D01*
X177295286Y-54820429D02*
X177295286Y-56320429D01*
X177795286Y-55249000D01*
X178295286Y-56320429D01*
X178295286Y-54820429D01*
X179009572Y-54820429D02*
X179009572Y-55820429D01*
X179009572Y-56320429D02*
X178938143Y-56249000D01*
X179009572Y-56177571D01*
X179081000Y-56249000D01*
X179009572Y-56320429D01*
X179009572Y-56177571D01*
X179652429Y-54891857D02*
X179795286Y-54820429D01*
X180081001Y-54820429D01*
X180223858Y-54891857D01*
X180295286Y-55034714D01*
X180295286Y-55106143D01*
X180223858Y-55249000D01*
X180081001Y-55320429D01*
X179866715Y-55320429D01*
X179723858Y-55391857D01*
X179652429Y-55534714D01*
X179652429Y-55606143D01*
X179723858Y-55749000D01*
X179866715Y-55820429D01*
X180081001Y-55820429D01*
X180223858Y-55749000D01*
X180866715Y-54891857D02*
X181009572Y-54820429D01*
X181295287Y-54820429D01*
X181438144Y-54891857D01*
X181509572Y-55034714D01*
X181509572Y-55106143D01*
X181438144Y-55249000D01*
X181295287Y-55320429D01*
X181081001Y-55320429D01*
X180938144Y-55391857D01*
X180866715Y-55534714D01*
X180866715Y-55606143D01*
X180938144Y-55749000D01*
X181081001Y-55820429D01*
X181295287Y-55820429D01*
X181438144Y-55749000D01*
X182152430Y-54820429D02*
X182152430Y-55820429D01*
X182152430Y-55534714D02*
X182223858Y-55677571D01*
X182295287Y-55749000D01*
X182438144Y-55820429D01*
X182581001Y-55820429D01*
X183081001Y-54820429D02*
X183081001Y-55820429D01*
X183081001Y-56320429D02*
X183009572Y-56249000D01*
X183081001Y-56177571D01*
X183152429Y-56249000D01*
X183081001Y-56320429D01*
X183081001Y-56177571D01*
D13*
X179009040Y-94274640D02*
X178107340Y-94274640D01*
X180306980Y-94274640D02*
X181305200Y-94274640D01*
X176654460Y-95476060D02*
X176654460Y-94274640D01*
X176654460Y-88673940D02*
X176654460Y-89875360D01*
X176105820Y-95476060D02*
X176105820Y-94274640D01*
X176105820Y-88673940D02*
X176105820Y-89875360D01*
X183304180Y-95476060D02*
X183304180Y-94223840D01*
X183304180Y-88673940D02*
X183304180Y-89926160D01*
X179009040Y-93474540D02*
X179009040Y-95074740D01*
X180157120Y-95023940D02*
X180157120Y-93474540D01*
X179006500Y-94274640D02*
X180157120Y-95023940D01*
X179009040Y-94274640D02*
X180159660Y-93474540D01*
X183304180Y-95476060D02*
X176105820Y-95476060D01*
X183304180Y-88673940D02*
X176105820Y-88673940D01*
X163134040Y-94274640D02*
X162232340Y-94274640D01*
X164431980Y-94274640D02*
X165430200Y-94274640D01*
X160779460Y-95476060D02*
X160779460Y-94274640D01*
X160779460Y-88673940D02*
X160779460Y-89875360D01*
X160230820Y-95476060D02*
X160230820Y-94274640D01*
X160230820Y-88673940D02*
X160230820Y-89875360D01*
X167429180Y-95476060D02*
X167429180Y-94223840D01*
X167429180Y-88673940D02*
X167429180Y-89926160D01*
X163134040Y-93474540D02*
X163134040Y-95074740D01*
X164282120Y-95023940D02*
X164282120Y-93474540D01*
X163131500Y-94274640D02*
X164282120Y-95023940D01*
X163134040Y-94274640D02*
X164284660Y-93474540D01*
X167429180Y-95476060D02*
X160230820Y-95476060D01*
X167429180Y-88673940D02*
X160230820Y-88673940D01*
X194884040Y-94274640D02*
X193982340Y-94274640D01*
X196181980Y-94274640D02*
X197180200Y-94274640D01*
X192529460Y-95476060D02*
X192529460Y-94274640D01*
X192529460Y-88673940D02*
X192529460Y-89875360D01*
X191980820Y-95476060D02*
X191980820Y-94274640D01*
X191980820Y-88673940D02*
X191980820Y-89875360D01*
X199179180Y-95476060D02*
X199179180Y-94223840D01*
X199179180Y-88673940D02*
X199179180Y-89926160D01*
X194884040Y-93474540D02*
X194884040Y-95074740D01*
X196032120Y-95023940D02*
X196032120Y-93474540D01*
X194881500Y-94274640D02*
X196032120Y-95023940D01*
X194884040Y-94274640D02*
X196034660Y-93474540D01*
X199179180Y-95476060D02*
X191980820Y-95476060D01*
X199179180Y-88673940D02*
X191980820Y-88673940D01*
D10*
G36*
X173269510Y-74575073D02*
X173270547Y-74231717D01*
X173285671Y-73900707D01*
X173314375Y-73627272D01*
X173356151Y-73456641D01*
X173376167Y-73427494D01*
X173505086Y-73375977D01*
X173754717Y-73312871D01*
X174078005Y-73249567D01*
X174183151Y-73232108D01*
X174513194Y-73170673D01*
X174777568Y-73104793D01*
X174932275Y-73046014D01*
X174951514Y-73030482D01*
X175033118Y-72881719D01*
X175139671Y-72639448D01*
X175248728Y-72361645D01*
X175337842Y-72106284D01*
X175384565Y-71931340D01*
X175387000Y-71905713D01*
X175341141Y-71784692D01*
X175218463Y-71565035D01*
X175041318Y-71285365D01*
X174949616Y-71149974D01*
X174512231Y-70517275D01*
X175137997Y-69887304D01*
X175403005Y-69627033D01*
X175627033Y-69419111D01*
X175782045Y-69288848D01*
X175835801Y-69257334D01*
X175933271Y-69302936D01*
X176132634Y-69424846D01*
X176398153Y-69600721D01*
X176524982Y-69688223D01*
X177142125Y-70119112D01*
X177489166Y-69942065D01*
X177703868Y-69838908D01*
X177819376Y-69813673D01*
X177885057Y-69863021D01*
X177913970Y-69913343D01*
X177977726Y-70050865D01*
X178086690Y-70301949D01*
X178227810Y-70634966D01*
X178388037Y-71018286D01*
X178554321Y-71420279D01*
X178713612Y-71809314D01*
X178852861Y-72153763D01*
X178959016Y-72421994D01*
X179019028Y-72582379D01*
X179027667Y-72612671D01*
X178969009Y-72691728D01*
X178816362Y-72845034D01*
X178635078Y-73010556D01*
X178296451Y-73366203D01*
X178098438Y-73733207D01*
X178017044Y-74162657D01*
X178011667Y-74337987D01*
X178084972Y-74865581D01*
X178295498Y-75303603D01*
X178629157Y-75638512D01*
X179071865Y-75856766D01*
X179609534Y-75944822D01*
X179684220Y-75946000D01*
X180187205Y-75874131D01*
X180607870Y-75675687D01*
X180937872Y-75376415D01*
X181168865Y-75002061D01*
X181292505Y-74578372D01*
X181300446Y-74131093D01*
X181184343Y-73685971D01*
X180935851Y-73268752D01*
X180645590Y-72979925D01*
X180448788Y-72803375D01*
X180322662Y-72654891D01*
X180297667Y-72596123D01*
X180329173Y-72483561D01*
X180414718Y-72248365D01*
X180540844Y-71923200D01*
X180694091Y-71540730D01*
X180861000Y-71133621D01*
X181028114Y-70734537D01*
X181181971Y-70376144D01*
X181309114Y-70091105D01*
X181396084Y-69912087D01*
X181419401Y-69873674D01*
X181510524Y-69825142D01*
X181671339Y-69864509D01*
X181830679Y-69939265D01*
X182161784Y-70108182D01*
X182792235Y-69682758D01*
X183079536Y-69493797D01*
X183315140Y-69347940D01*
X183463353Y-69266886D01*
X183492129Y-69257334D01*
X183577125Y-69313915D01*
X183751882Y-69466726D01*
X183988346Y-69690366D01*
X184182282Y-69882215D01*
X184802993Y-70507095D01*
X184329497Y-71182824D01*
X183856002Y-71858552D01*
X184074935Y-72399443D01*
X184196480Y-72686415D01*
X184303213Y-72915234D01*
X184370939Y-73034686D01*
X184486777Y-73092231D01*
X184723721Y-73159185D01*
X185035001Y-73222806D01*
X185103339Y-73234214D01*
X185512384Y-73301935D01*
X185783482Y-73370624D01*
X185944963Y-73473272D01*
X186025157Y-73642869D01*
X186052395Y-73912406D01*
X186055007Y-74314872D01*
X186055000Y-74342408D01*
X186054666Y-74726247D01*
X186035800Y-74989993D01*
X185971607Y-75161681D01*
X185835292Y-75269350D01*
X185600059Y-75341034D01*
X185239114Y-75404771D01*
X185003796Y-75442313D01*
X184338844Y-75549581D01*
X184096256Y-76084599D01*
X183974537Y-76365170D01*
X183887470Y-76589009D01*
X183853673Y-76708199D01*
X183853667Y-76708861D01*
X183899655Y-76812585D01*
X184023375Y-77019137D01*
X184203463Y-77294034D01*
X184331345Y-77479803D01*
X184809023Y-78161501D01*
X184185298Y-78789417D01*
X183920312Y-79049310D01*
X183695797Y-79256767D01*
X183540018Y-79386411D01*
X183485895Y-79417334D01*
X183388116Y-79371484D01*
X183186668Y-79248157D01*
X182915395Y-79068688D01*
X182732448Y-78942408D01*
X182054679Y-78467483D01*
X181479477Y-78693155D01*
X180904276Y-78918828D01*
X180760307Y-79718414D01*
X180616338Y-80518000D01*
X179659685Y-80518000D01*
X178703032Y-80518000D01*
X178618264Y-80115834D01*
X178550818Y-79768010D01*
X178488712Y-79404203D01*
X178476165Y-79321705D01*
X178418834Y-78929744D01*
X177840801Y-78702960D01*
X177262768Y-78476176D01*
X176531883Y-78962571D01*
X175800997Y-79448965D01*
X175153231Y-78801199D01*
X174505465Y-78153433D01*
X174994467Y-77440887D01*
X175483468Y-76728340D01*
X175239502Y-76152306D01*
X174995535Y-75576272D01*
X174218592Y-75428079D01*
X173869333Y-75357735D01*
X173581303Y-75292809D01*
X173396604Y-75243116D01*
X173355991Y-75226946D01*
X173311725Y-75117916D01*
X173283067Y-74885549D01*
X173269510Y-74575073D01*
X173269510Y-74575073D01*
X173269510Y-74575073D01*
G37*
X173269510Y-74575073D02*
X173270547Y-74231717D01*
X173285671Y-73900707D01*
X173314375Y-73627272D01*
X173356151Y-73456641D01*
X173376167Y-73427494D01*
X173505086Y-73375977D01*
X173754717Y-73312871D01*
X174078005Y-73249567D01*
X174183151Y-73232108D01*
X174513194Y-73170673D01*
X174777568Y-73104793D01*
X174932275Y-73046014D01*
X174951514Y-73030482D01*
X175033118Y-72881719D01*
X175139671Y-72639448D01*
X175248728Y-72361645D01*
X175337842Y-72106284D01*
X175384565Y-71931340D01*
X175387000Y-71905713D01*
X175341141Y-71784692D01*
X175218463Y-71565035D01*
X175041318Y-71285365D01*
X174949616Y-71149974D01*
X174512231Y-70517275D01*
X175137997Y-69887304D01*
X175403005Y-69627033D01*
X175627033Y-69419111D01*
X175782045Y-69288848D01*
X175835801Y-69257334D01*
X175933271Y-69302936D01*
X176132634Y-69424846D01*
X176398153Y-69600721D01*
X176524982Y-69688223D01*
X177142125Y-70119112D01*
X177489166Y-69942065D01*
X177703868Y-69838908D01*
X177819376Y-69813673D01*
X177885057Y-69863021D01*
X177913970Y-69913343D01*
X177977726Y-70050865D01*
X178086690Y-70301949D01*
X178227810Y-70634966D01*
X178388037Y-71018286D01*
X178554321Y-71420279D01*
X178713612Y-71809314D01*
X178852861Y-72153763D01*
X178959016Y-72421994D01*
X179019028Y-72582379D01*
X179027667Y-72612671D01*
X178969009Y-72691728D01*
X178816362Y-72845034D01*
X178635078Y-73010556D01*
X178296451Y-73366203D01*
X178098438Y-73733207D01*
X178017044Y-74162657D01*
X178011667Y-74337987D01*
X178084972Y-74865581D01*
X178295498Y-75303603D01*
X178629157Y-75638512D01*
X179071865Y-75856766D01*
X179609534Y-75944822D01*
X179684220Y-75946000D01*
X180187205Y-75874131D01*
X180607870Y-75675687D01*
X180937872Y-75376415D01*
X181168865Y-75002061D01*
X181292505Y-74578372D01*
X181300446Y-74131093D01*
X181184343Y-73685971D01*
X180935851Y-73268752D01*
X180645590Y-72979925D01*
X180448788Y-72803375D01*
X180322662Y-72654891D01*
X180297667Y-72596123D01*
X180329173Y-72483561D01*
X180414718Y-72248365D01*
X180540844Y-71923200D01*
X180694091Y-71540730D01*
X180861000Y-71133621D01*
X181028114Y-70734537D01*
X181181971Y-70376144D01*
X181309114Y-70091105D01*
X181396084Y-69912087D01*
X181419401Y-69873674D01*
X181510524Y-69825142D01*
X181671339Y-69864509D01*
X181830679Y-69939265D01*
X182161784Y-70108182D01*
X182792235Y-69682758D01*
X183079536Y-69493797D01*
X183315140Y-69347940D01*
X183463353Y-69266886D01*
X183492129Y-69257334D01*
X183577125Y-69313915D01*
X183751882Y-69466726D01*
X183988346Y-69690366D01*
X184182282Y-69882215D01*
X184802993Y-70507095D01*
X184329497Y-71182824D01*
X183856002Y-71858552D01*
X184074935Y-72399443D01*
X184196480Y-72686415D01*
X184303213Y-72915234D01*
X184370939Y-73034686D01*
X184486777Y-73092231D01*
X184723721Y-73159185D01*
X185035001Y-73222806D01*
X185103339Y-73234214D01*
X185512384Y-73301935D01*
X185783482Y-73370624D01*
X185944963Y-73473272D01*
X186025157Y-73642869D01*
X186052395Y-73912406D01*
X186055007Y-74314872D01*
X186055000Y-74342408D01*
X186054666Y-74726247D01*
X186035800Y-74989993D01*
X185971607Y-75161681D01*
X185835292Y-75269350D01*
X185600059Y-75341034D01*
X185239114Y-75404771D01*
X185003796Y-75442313D01*
X184338844Y-75549581D01*
X184096256Y-76084599D01*
X183974537Y-76365170D01*
X183887470Y-76589009D01*
X183853673Y-76708199D01*
X183853667Y-76708861D01*
X183899655Y-76812585D01*
X184023375Y-77019137D01*
X184203463Y-77294034D01*
X184331345Y-77479803D01*
X184809023Y-78161501D01*
X184185298Y-78789417D01*
X183920312Y-79049310D01*
X183695797Y-79256767D01*
X183540018Y-79386411D01*
X183485895Y-79417334D01*
X183388116Y-79371484D01*
X183186668Y-79248157D01*
X182915395Y-79068688D01*
X182732448Y-78942408D01*
X182054679Y-78467483D01*
X181479477Y-78693155D01*
X180904276Y-78918828D01*
X180760307Y-79718414D01*
X180616338Y-80518000D01*
X179659685Y-80518000D01*
X178703032Y-80518000D01*
X178618264Y-80115834D01*
X178550818Y-79768010D01*
X178488712Y-79404203D01*
X178476165Y-79321705D01*
X178418834Y-78929744D01*
X177840801Y-78702960D01*
X177262768Y-78476176D01*
X176531883Y-78962571D01*
X175800997Y-79448965D01*
X175153231Y-78801199D01*
X174505465Y-78153433D01*
X174994467Y-77440887D01*
X175483468Y-76728340D01*
X175239502Y-76152306D01*
X174995535Y-75576272D01*
X174218592Y-75428079D01*
X173869333Y-75357735D01*
X173581303Y-75292809D01*
X173396604Y-75243116D01*
X173355991Y-75226946D01*
X173311725Y-75117916D01*
X173283067Y-74885549D01*
X173269510Y-74575073D01*
X173269510Y-74575073D01*
M02*
